<svg width="29" height="29" viewBox="0 0 29 29" fill="none" xmlns="http://www.w3.org/2000/svg">
<path d="M20.5417 13.2917C20.9525 13.2917 21.3513 13.34 21.75 13.4004V7.57625L12.6875 3.625L3.625 7.57625V13.5092C3.625 18.995 7.49167 24.1304 12.6875 25.375C13.3521 25.2179 13.9925 24.9883 14.6208 24.7104C13.7871 23.5263 13.2917 22.0883 13.2917 20.5417C13.2917 16.5421 16.5421 13.2917 20.5417 13.2917Z" fill="white"/>
<path d="M20.5416 15.7083C17.8712 15.7083 15.7083 17.8712 15.7083 20.5417C15.7083 23.2121 17.8712 25.375 20.5416 25.375C23.212 25.375 25.3749 23.2121 25.3749 20.5417C25.3749 17.8712 23.212 15.7083 20.5416 15.7083ZM20.5416 17.3758C21.2908 17.3758 21.8949 17.9921 21.8949 18.7292C21.8949 19.4662 21.2787 20.0825 20.5416 20.0825C19.8045 20.0825 19.1883 19.4662 19.1883 18.7292C19.1883 17.9921 19.7924 17.3758 20.5416 17.3758ZM20.5416 23.8646C19.4178 23.8646 18.4391 23.3087 17.8349 22.4508C17.8953 21.5808 19.6595 21.1458 20.5416 21.1458C21.4237 21.1458 23.1878 21.5808 23.2483 22.4508C22.6441 23.3087 21.6653 23.8646 20.5416 23.8646Z" fill="white"/>
</svg>
