<svg width="29" height="29" viewBox="0 0 29 29" fill="none" xmlns="http://www.w3.org/2000/svg">
<path d="M22.5556 12.8889C23.1033 12.8889 23.635 12.9533 24.1667 13.0339V5.26833L12.0833 0L0 5.26833V13.1789C0 20.4933 5.15556 27.3406 12.0833 29C12.9694 28.7906 13.8233 28.4844 14.6611 28.1139C13.5494 26.535 12.8889 24.6178 12.8889 22.5556C12.8889 17.2228 17.2228 12.8889 22.5556 12.8889Z" fill="black"/>
<path d="M22.5555 16.1111C18.995 16.1111 16.1111 18.995 16.1111 22.5555C16.1111 26.1161 18.995 29 22.5555 29C26.1161 29 29 26.1161 29 22.5555C29 18.995 26.1161 16.1111 22.5555 16.1111ZM22.5555 18.3344C23.5544 18.3344 24.36 19.1561 24.36 20.1389C24.36 21.1216 23.5383 21.9433 22.5555 21.9433C21.5728 21.9433 20.7511 21.1216 20.7511 20.1389C20.7511 19.1561 21.5566 18.3344 22.5555 18.3344ZM22.5555 26.9861C21.0572 26.9861 19.7522 26.245 18.9466 25.1011C19.0272 23.9411 21.3794 23.3611 22.5555 23.3611C23.7316 23.3611 26.0839 23.9411 26.1644 25.1011C25.3589 26.245 24.0539 26.9861 22.5555 26.9861Z" fill="black"/>
</svg>
