<svg width="85" height="70" viewBox="0 0 85 70" fill="none" xmlns="http://www.w3.org/2000/svg">
<path fill-rule="evenodd" clip-rule="evenodd" d="M31.1678 48.8024C31.1678 49.2213 31.0272 49.6403 30.7459 49.98L24.7562 57.2143C23.6768 58.518 24.7878 60.489 26.4298 60.1834L35.5413 58.4875C36.397 58.3282 37.2395 58.8264 37.5327 59.6651L40.6545 68.5954C41.2171 70.2047 43.4391 70.2047 44.0017 68.5954L47.1235 59.6651C47.4167 58.8264 48.2593 58.3282 49.1149 58.4875L58.2265 60.1834C59.8684 60.489 60.9795 58.518 59.9001 57.2143L53.9103 49.98C53.6291 49.6403 53.4885 49.2213 53.4885 48.8024L31.1678 48.8024Z" fill="#B79DFF"/>
<path d="M84.3281 42C84.3281 36.4845 83.2418 31.023 81.1311 25.9273C79.0204 20.8316 75.9267 16.2016 72.0266 12.3015C68.1265 8.40145 63.4965 5.30776 58.4008 3.19706C53.3052 1.08636 47.8436 -2.41091e-07 42.3281 0C36.8126 2.41091e-07 31.3511 1.08636 26.2554 3.19706C21.1597 5.30776 16.5297 8.40146 12.6296 12.3015C8.72958 16.2016 5.63588 20.8316 3.52518 25.9273C1.41449 31.023 0.328125 36.4845 0.328125 42H19.4543C19.4543 38.9962 20.046 36.0218 21.1955 33.2466C22.345 30.4714 24.0299 27.9498 26.1539 25.8258C28.2779 23.7018 30.7995 22.0169 33.5747 20.8674C36.3499 19.7179 39.3243 19.1262 42.3281 19.1262C45.332 19.1262 48.3064 19.7179 51.0815 20.8674C53.8567 22.0169 56.3783 23.7018 58.5023 25.8258C60.6264 27.9498 62.3112 30.4714 63.4608 33.2466C64.6103 36.0218 65.2019 38.9962 65.2019 42L84.3281 42Z" fill="#6640D2"/>
<path d="M54.7726 42.7778C54.7726 41.2457 54.4708 39.7286 53.8845 38.3131C53.2982 36.8976 52.4389 35.6115 51.3555 34.5282C50.2722 33.4448 48.986 32.5855 47.5706 31.9992C46.1551 31.4129 44.638 31.1111 43.1059 31.1111C41.5738 31.1111 40.0568 31.4129 38.6413 31.9992C37.2258 32.5855 35.9397 33.4448 34.8564 34.5282C33.773 35.6115 32.9136 36.8976 32.3273 38.3131C31.741 39.7286 31.4393 41.2457 31.4393 42.7778L43.1059 42.7778H54.7726Z" fill="#6640D2"/>
</svg>
