<svg width="214" height="47" viewBox="0 0 214 47" fill="none" xmlns="http://www.w3.org/2000/svg">
<path d="M66.4673 13.4222V20.2106H75.6445V24.5164H66.4673V31.6928H76.8161V36.115H61V9H76.8161V13.4222H66.4673Z" fill="white"/>
<path d="M80.3786 25.2923C80.3786 23.12 80.8082 21.1933 81.6673 19.5124C82.5525 17.8314 83.7371 16.5384 85.2211 15.6333C86.7311 14.7281 88.4103 14.2756 90.2588 14.2756C91.8729 14.2756 93.2788 14.5988 94.4764 15.2454C95.7 15.8919 96.6763 16.7065 97.4053 17.6892V14.6247H102.912V36.115H97.4053V32.9729C96.7024 33.9815 95.7261 34.8219 94.4764 35.4943C93.2528 36.1408 91.8339 36.4641 90.2197 36.4641C88.3973 36.4641 86.7311 35.9986 85.2211 35.0676C83.7371 34.1366 82.5525 32.8307 81.6673 31.1497C80.8082 29.4429 80.3786 27.4904 80.3786 25.2923ZM97.4053 25.3698C97.4053 24.0509 97.1449 22.926 96.6242 21.995C96.1036 21.0382 95.4006 20.3141 94.5154 19.8227C93.6303 19.3055 92.68 19.0469 91.6646 19.0469C90.6493 19.0469 89.712 19.2926 88.8529 19.7839C87.9938 20.2753 87.2908 20.9994 86.7441 21.9562C86.2234 22.8872 85.9631 23.9992 85.9631 25.2923C85.9631 26.5853 86.2234 27.7232 86.7441 28.7059C87.2908 29.6627 87.9938 30.3997 88.8529 30.917C89.7381 31.4342 90.6753 31.6928 91.6646 31.6928C92.68 31.6928 93.6303 31.4471 94.5154 30.9557C95.4006 30.4385 96.1036 29.7144 96.6242 28.7834C97.1449 27.8266 97.4053 26.6887 97.4053 25.3698Z" fill="white"/>
<path d="M116.53 36.4641C114.76 36.4641 113.172 36.1538 111.766 35.5331C110.36 34.8866 109.241 34.0202 108.408 32.9341C107.6 31.8479 107.158 30.6454 107.08 29.3265H112.586C112.69 30.1541 113.094 30.8394 113.797 31.3825C114.526 31.9255 115.424 32.1971 116.491 32.1971C117.533 32.1971 118.34 31.9902 118.913 31.5764C119.511 31.1626 119.811 30.6325 119.811 29.986C119.811 29.2877 119.446 28.7705 118.717 28.4343C118.014 28.0723 116.882 27.6844 115.32 27.2706C113.706 26.8827 112.378 26.4818 111.336 26.0681C110.321 25.6543 109.436 25.0207 108.681 24.1673C107.952 23.3139 107.587 22.1631 107.587 20.7149C107.587 19.5253 107.926 18.4392 108.603 17.4565C109.306 16.4737 110.295 15.6979 111.571 15.129C112.873 14.5601 114.396 14.2756 116.14 14.2756C118.717 14.2756 120.774 14.9221 122.31 16.2151C123.846 17.4823 124.692 19.2021 124.848 21.3744H119.615C119.537 20.521 119.173 19.8486 118.522 19.3572C117.897 18.84 117.051 18.5814 115.984 18.5814C114.994 18.5814 114.226 18.7624 113.68 19.1245C113.159 19.4865 112.899 19.9908 112.899 20.6373C112.899 21.3614 113.263 21.9174 113.992 22.3053C114.721 22.6674 115.853 23.0424 117.39 23.4303C118.952 23.8182 120.24 24.219 121.256 24.6328C122.271 25.0466 123.143 25.6931 123.872 26.5724C124.627 27.4258 125.018 28.5636 125.044 29.986C125.044 31.2273 124.692 32.3393 123.989 33.322C123.312 34.3047 122.323 35.0805 121.021 35.6495C119.746 36.1925 118.249 36.4641 116.53 36.4641Z" fill="white"/>
<path d="M150.229 14.6247L136.834 46.2782H131.016L135.702 35.5719L127.032 14.6247H133.163L138.748 29.6369L144.41 14.6247H150.229Z" fill="white"/>
<path d="M168.641 22.2278C170.177 22.5122 171.44 23.2751 172.429 24.5164C173.418 25.7577 173.913 27.1801 173.913 28.7834C173.913 30.2316 173.549 31.5118 172.82 32.6238C172.117 33.7099 171.088 34.5633 169.734 35.184C168.381 35.8046 166.779 36.115 164.931 36.115H153.176V9.03879H164.423C166.272 9.03879 167.86 9.33619 169.188 9.93099C170.541 10.5258 171.557 11.3533 172.234 12.4136C172.937 13.4739 173.288 14.6764 173.288 16.0212C173.288 17.5987 172.859 18.9176 171.999 19.9779C171.166 21.0382 170.047 21.7881 168.641 22.2278ZM158.644 20.2106H163.642C164.944 20.2106 165.946 19.9262 166.649 19.3572C167.352 18.7624 167.704 17.9219 167.704 16.8358C167.704 15.7496 167.352 14.9092 166.649 14.3144C165.946 13.7196 164.944 13.4222 163.642 13.4222H158.644V20.2106ZM164.15 31.6928C165.478 31.6928 166.506 31.3825 167.235 30.7618C167.99 30.1411 168.368 29.2619 168.368 28.124C168.368 26.9603 167.977 26.0551 167.196 25.4086C166.415 24.7362 165.361 24.4001 164.033 24.4001H158.644V31.6928H164.15Z" fill="#5D6AD2"/>
<path d="M198.382 24.9043C198.382 25.6802 198.33 26.3784 198.226 26.9991H182.41C182.54 28.5507 183.087 29.7662 184.05 30.6454C185.013 31.5247 186.198 31.9643 187.604 31.9643C189.634 31.9643 191.079 31.098 191.939 29.3653H197.835C197.211 31.4342 196.013 33.141 194.243 34.4857C192.472 35.8046 190.298 36.4641 187.721 36.4641C185.638 36.4641 183.764 36.0115 182.097 35.1064C180.457 34.1754 179.169 32.8694 178.231 31.1885C177.32 29.5075 176.864 27.568 176.864 25.3698C176.864 23.1458 177.32 21.1933 178.231 19.5124C179.142 17.8314 180.418 16.5384 182.058 15.6333C183.699 14.7281 185.586 14.2756 187.721 14.2756C189.778 14.2756 191.613 14.7152 193.227 15.5945C194.867 16.4737 196.13 17.728 197.015 19.3572C197.926 20.9606 198.382 22.8096 198.382 24.9043ZM192.72 23.3527C192.694 21.9562 192.186 20.8442 191.197 20.0167C190.207 19.1633 188.997 18.7366 187.565 18.7366C186.211 18.7366 185.065 19.1503 184.128 19.9779C183.217 20.7796 182.657 21.9045 182.449 23.3527H192.72Z" fill="#5D6AD2"/>
<path d="M208.738 19.0857V29.4817C208.738 30.2058 208.907 30.7359 209.246 31.0721C209.61 31.3825 210.209 31.5376 211.042 31.5376H213.581V36.115H210.144C205.536 36.115 203.232 33.8909 203.232 29.4429V19.0857H200.654V14.6247H203.232V9.31033H208.738V14.6247H213.581V19.0857H208.738Z" fill="#5D6AD2"/>
<circle cx="21.9918" cy="21.992" r="4" stroke="#5D6AD2" stroke-width="5.5335"/>
<circle cx="21.9919" cy="21.9919" r="17.4919" stroke="white" stroke-width="9"/>
</svg>
