<svg width="406" height="72" viewBox="0 0 406 72" fill="none" xmlns="http://www.w3.org/2000/svg">
<mask id="path-1-outside-1_557_364" maskUnits="userSpaceOnUse" x="83.6719" y="2.56543" width="306" height="69" fill="black">
<rect fill="white" x="83.6719" y="2.56543" width="306" height="69"/>
<path d="M126.476 39.6934H96.2955C96.5462 41.9036 97.4462 43.6012 98.9957 44.7861C100.545 45.9482 102.698 46.5293 105.456 46.5293C109.762 46.5293 113.875 44.7861 117.795 41.2998L123.947 48.9219C118.706 53.5931 112.428 55.9287 105.114 55.9287C98.9615 55.9287 94.0169 54.2539 90.2799 50.9043C86.5429 47.5547 84.6744 43.1569 84.6744 37.7109C84.6288 34.7715 85.1985 31.9688 86.3834 29.3027C87.5683 26.6367 89.1747 24.3467 91.2027 22.4326C93.2307 20.5186 95.6461 19.0146 98.4488 17.9209C101.274 16.8044 104.225 16.2689 107.301 16.3145C113.044 16.3145 117.738 18.0348 121.383 21.4756C125.052 24.9163 126.886 29.3255 126.886 34.7031C126.886 36.207 126.75 37.8704 126.476 39.6934ZM115.47 31.7637C115.379 29.8268 114.559 28.2773 113.009 27.1152C111.483 25.9303 109.58 25.3379 107.301 25.3379C104.932 25.3379 102.824 25.9189 100.978 27.0811C99.1552 28.2432 97.8792 29.804 97.15 31.7637H115.47Z"/>
<path d="M175.353 17.5791L168.756 54.6641H157.785L158.4 51.1777H158.195C155.552 53.9577 151.894 55.3477 147.223 55.3477C141.937 55.3477 137.801 53.8551 134.816 50.8701C131.785 47.8395 130.27 43.7607 130.27 38.6338C130.225 35.6943 130.726 32.8688 131.774 30.1572C132.845 27.4456 134.292 25.11 136.115 23.1504C137.961 21.168 140.182 19.6071 142.78 18.4678C145.378 17.3285 148.112 16.793 150.983 16.8613C153.216 16.8613 155.347 17.1917 157.375 17.8525C159.425 18.5133 161.169 19.4248 162.604 20.5869H162.741L163.39 17.5791H175.353ZM160.006 37.0957L161.066 31.4219C160.2 30.0547 159.027 28.9837 157.546 28.209C156.064 27.4115 154.435 27.0127 152.658 27.0127C149.696 27.0127 147.223 28.0609 145.241 30.1572C143.281 32.2308 142.301 34.7943 142.301 37.8477C142.301 42.61 144.796 44.9912 149.787 44.9912C152.316 44.9912 154.538 44.262 156.452 42.8037C158.389 41.3226 159.573 39.4199 160.006 37.0957Z"/>
<path d="M175.011 43.3848L186.256 40.2402C186.849 42.3822 188.114 44.0342 190.05 45.1963C192.01 46.3356 194.482 46.9053 197.467 46.9053C199.609 46.9053 201.307 46.666 202.56 46.1875C203.836 45.709 204.474 45.0596 204.474 44.2393C204.474 43.305 203.882 42.5531 202.697 41.9834C201.512 41.4137 199.302 40.8327 196.066 40.2402C190.164 39.1009 185.994 37.6312 183.556 35.8311C181.118 34.0309 179.899 31.513 179.899 28.2773C179.899 24.7454 181.517 21.8743 184.753 19.6641C188.011 17.431 192.204 16.3145 197.331 16.3145C202.298 16.3145 206.707 17.3398 210.558 19.3906C214.341 21.3958 216.768 24.096 217.838 27.4912L207.14 30.6699C206.434 29.0293 205.181 27.7077 203.38 26.7051C201.603 25.7025 199.587 25.2012 197.331 25.2012C195.553 25.2012 194.118 25.4632 193.024 25.9873C191.93 26.4886 191.383 27.1608 191.383 28.0039C191.383 28.8014 191.942 29.4508 193.058 29.9521C194.175 30.4535 196.248 30.9889 199.279 31.5586C205.363 32.7891 209.692 34.3613 212.267 36.2754C214.865 38.1895 216.164 40.7985 216.164 44.1025C216.164 47.5661 214.409 50.403 210.9 52.6133C207.414 54.8236 202.936 55.9287 197.467 55.9287C191.475 55.9287 186.484 54.8236 182.497 52.6133C178.509 50.3802 176.014 47.304 175.011 43.3848Z"/>
<path d="M229.836 52.9209L218.761 17.5791H231.237L237.663 40.8896H237.799L252.497 17.5791H266.784L231.579 70.4209H218.078L229.836 52.9209Z"/>
<path d="M278.234 51.1094H278.097V54.6641H266.955V3.56543H279.088V20.3477H279.225C282.051 17.7956 285.799 16.5195 290.47 16.5195C294.116 16.4512 297.489 17.3057 300.587 19.083C303.686 20.8376 306.113 23.2415 307.868 26.2949C309.645 29.3255 310.5 32.6182 310.431 36.1729C310.477 38.8844 309.987 41.4479 308.962 43.8633C307.959 46.2786 306.569 48.3522 304.792 50.084C303.037 51.793 300.907 53.1374 298.4 54.1172C295.893 55.097 293.227 55.5641 290.402 55.5186C287.918 55.5186 285.617 55.1426 283.498 54.3906C281.401 53.6159 279.647 52.5221 278.234 51.1094ZM298.332 36.0361C298.332 33.3701 297.397 31.2054 295.529 29.542C293.683 27.8558 291.279 27.0127 288.317 27.0127C285.81 27.0127 283.646 27.6963 281.823 29.0635C280 30.4307 279.088 32.0599 279.088 33.9512V38.0186C279.088 39.9326 279.966 41.5618 281.72 42.9062C283.543 44.2507 285.742 44.9229 288.317 44.9229C291.393 44.9229 293.831 44.1253 295.631 42.5303C297.432 40.9124 298.332 38.7477 298.332 36.0361Z"/>
<path d="M313.678 36.1729C313.633 33.4385 314.145 30.8294 315.216 28.3457C316.31 25.862 317.791 23.7314 319.66 21.9541C321.528 20.154 323.773 18.7412 326.393 17.7158C329.036 16.6904 331.805 16.2005 334.699 16.2461C338.664 16.2461 342.241 17.1234 345.431 18.8779C348.621 20.6097 351.105 23.0023 352.882 26.0557C354.66 29.0863 355.548 32.4587 355.548 36.1729V39.7617H325.641C325.823 41.8809 326.769 43.5329 328.478 44.7178C330.187 45.8799 332.511 46.4609 335.451 46.4609C339.279 46.4609 343.016 44.7406 346.662 41.2998L353.361 48.9902C350.763 51.3828 347.995 53.1488 345.055 54.2881C342.116 55.4274 338.778 55.9971 335.041 55.9971C328.569 55.9971 323.385 54.1969 319.489 50.5967C315.615 46.9736 313.678 42.1657 313.678 36.1729ZM343.791 31.7637C343.563 29.7585 342.651 28.1976 341.056 27.0811C339.484 25.9645 337.41 25.4062 334.836 25.4062C332.352 25.4062 330.267 25.9873 328.581 27.1494C326.894 28.3115 325.937 29.8496 325.71 31.7637H343.791Z"/>
<path d="M376.671 27.2861V40.6504C376.671 41.7897 376.934 42.5986 377.458 43.0771C377.982 43.5329 378.893 43.7607 380.192 43.7607H387.13V54.6641H378.38C373.641 54.6641 370.155 53.6159 367.921 51.5195C365.688 49.4004 364.572 46.1533 364.572 41.7783V27.2861H355.822V17.5791H364.572V7.97461H376.671V17.5791H388.532V27.2861H376.671Z"/>
</mask>
<path d="M126.476 39.6934H96.2955C96.5462 41.9036 97.4462 43.6012 98.9957 44.7861C100.545 45.9482 102.698 46.5293 105.456 46.5293C109.762 46.5293 113.875 44.7861 117.795 41.2998L123.947 48.9219C118.706 53.5931 112.428 55.9287 105.114 55.9287C98.9615 55.9287 94.0169 54.2539 90.2799 50.9043C86.5429 47.5547 84.6744 43.1569 84.6744 37.7109C84.6288 34.7715 85.1985 31.9688 86.3834 29.3027C87.5683 26.6367 89.1747 24.3467 91.2027 22.4326C93.2307 20.5186 95.6461 19.0146 98.4488 17.9209C101.274 16.8044 104.225 16.2689 107.301 16.3145C113.044 16.3145 117.738 18.0348 121.383 21.4756C125.052 24.9163 126.886 29.3255 126.886 34.7031C126.886 36.207 126.75 37.8704 126.476 39.6934ZM115.47 31.7637C115.379 29.8268 114.559 28.2773 113.009 27.1152C111.483 25.9303 109.58 25.3379 107.301 25.3379C104.932 25.3379 102.824 25.9189 100.978 27.0811C99.1552 28.2432 97.8792 29.804 97.15 31.7637H115.47Z" fill="white"/>
<path d="M175.353 17.5791L168.756 54.6641H157.785L158.4 51.1777H158.195C155.552 53.9577 151.894 55.3477 147.223 55.3477C141.937 55.3477 137.801 53.8551 134.816 50.8701C131.785 47.8395 130.27 43.7607 130.27 38.6338C130.225 35.6943 130.726 32.8688 131.774 30.1572C132.845 27.4456 134.292 25.11 136.115 23.1504C137.961 21.168 140.182 19.6071 142.78 18.4678C145.378 17.3285 148.112 16.793 150.983 16.8613C153.216 16.8613 155.347 17.1917 157.375 17.8525C159.425 18.5133 161.169 19.4248 162.604 20.5869H162.741L163.39 17.5791H175.353ZM160.006 37.0957L161.066 31.4219C160.2 30.0547 159.027 28.9837 157.546 28.209C156.064 27.4115 154.435 27.0127 152.658 27.0127C149.696 27.0127 147.223 28.0609 145.241 30.1572C143.281 32.2308 142.301 34.7943 142.301 37.8477C142.301 42.61 144.796 44.9912 149.787 44.9912C152.316 44.9912 154.538 44.262 156.452 42.8037C158.389 41.3226 159.573 39.4199 160.006 37.0957Z" fill="white"/>
<path d="M175.011 43.3848L186.256 40.2402C186.849 42.3822 188.114 44.0342 190.05 45.1963C192.01 46.3356 194.482 46.9053 197.467 46.9053C199.609 46.9053 201.307 46.666 202.56 46.1875C203.836 45.709 204.474 45.0596 204.474 44.2393C204.474 43.305 203.882 42.5531 202.697 41.9834C201.512 41.4137 199.302 40.8327 196.066 40.2402C190.164 39.1009 185.994 37.6312 183.556 35.8311C181.118 34.0309 179.899 31.513 179.899 28.2773C179.899 24.7454 181.517 21.8743 184.753 19.6641C188.011 17.431 192.204 16.3145 197.331 16.3145C202.298 16.3145 206.707 17.3398 210.558 19.3906C214.341 21.3958 216.768 24.096 217.838 27.4912L207.14 30.6699C206.434 29.0293 205.181 27.7077 203.38 26.7051C201.603 25.7025 199.587 25.2012 197.331 25.2012C195.553 25.2012 194.118 25.4632 193.024 25.9873C191.93 26.4886 191.383 27.1608 191.383 28.0039C191.383 28.8014 191.942 29.4508 193.058 29.9521C194.175 30.4535 196.248 30.9889 199.279 31.5586C205.363 32.7891 209.692 34.3613 212.267 36.2754C214.865 38.1895 216.164 40.7985 216.164 44.1025C216.164 47.5661 214.409 50.403 210.9 52.6133C207.414 54.8236 202.936 55.9287 197.467 55.9287C191.475 55.9287 186.484 54.8236 182.497 52.6133C178.509 50.3802 176.014 47.304 175.011 43.3848Z" fill="white"/>
<path d="M229.836 52.9209L218.761 17.5791H231.237L237.663 40.8896H237.799L252.497 17.5791H266.784L231.579 70.4209H218.078L229.836 52.9209Z" fill="white"/>
<path d="M278.234 51.1094H278.097V54.6641H266.955V3.56543H279.088V20.3477H279.225C282.051 17.7956 285.799 16.5195 290.47 16.5195C294.116 16.4512 297.489 17.3057 300.587 19.083C303.686 20.8376 306.113 23.2415 307.868 26.2949C309.645 29.3255 310.5 32.6182 310.431 36.1729C310.477 38.8844 309.987 41.4479 308.962 43.8633C307.959 46.2786 306.569 48.3522 304.792 50.084C303.037 51.793 300.907 53.1374 298.4 54.1172C295.893 55.097 293.227 55.5641 290.402 55.5186C287.918 55.5186 285.617 55.1426 283.498 54.3906C281.401 53.6159 279.647 52.5221 278.234 51.1094ZM298.332 36.0361C298.332 33.3701 297.397 31.2054 295.529 29.542C293.683 27.8558 291.279 27.0127 288.317 27.0127C285.81 27.0127 283.646 27.6963 281.823 29.0635C280 30.4307 279.088 32.0599 279.088 33.9512V38.0186C279.088 39.9326 279.966 41.5618 281.72 42.9062C283.543 44.2507 285.742 44.9229 288.317 44.9229C291.393 44.9229 293.831 44.1253 295.631 42.5303C297.432 40.9124 298.332 38.7477 298.332 36.0361Z" fill="white"/>
<path d="M313.678 36.1729C313.633 33.4385 314.145 30.8294 315.216 28.3457C316.31 25.862 317.791 23.7314 319.66 21.9541C321.528 20.154 323.773 18.7412 326.393 17.7158C329.036 16.6904 331.805 16.2005 334.699 16.2461C338.664 16.2461 342.241 17.1234 345.431 18.8779C348.621 20.6097 351.105 23.0023 352.882 26.0557C354.66 29.0863 355.548 32.4587 355.548 36.1729V39.7617H325.641C325.823 41.8809 326.769 43.5329 328.478 44.7178C330.187 45.8799 332.511 46.4609 335.451 46.4609C339.279 46.4609 343.016 44.7406 346.662 41.2998L353.361 48.9902C350.763 51.3828 347.995 53.1488 345.055 54.2881C342.116 55.4274 338.778 55.9971 335.041 55.9971C328.569 55.9971 323.385 54.1969 319.489 50.5967C315.615 46.9736 313.678 42.1657 313.678 36.1729ZM343.791 31.7637C343.563 29.7585 342.651 28.1976 341.056 27.0811C339.484 25.9645 337.41 25.4062 334.836 25.4062C332.352 25.4062 330.267 25.9873 328.581 27.1494C326.894 28.3115 325.937 29.8496 325.71 31.7637H343.791Z" fill="white"/>
<path d="M376.671 27.2861V40.6504C376.671 41.7897 376.934 42.5986 377.458 43.0771C377.982 43.5329 378.893 43.7607 380.192 43.7607H387.13V54.6641H378.38C373.641 54.6641 370.155 53.6159 367.921 51.5195C365.688 49.4004 364.572 46.1533 364.572 41.7783V27.2861H355.822V17.5791H364.572V7.97461H376.671V17.5791H388.532V27.2861H376.671Z" fill="white"/>
<path d="M126.476 39.6934H96.2955C96.5462 41.9036 97.4462 43.6012 98.9957 44.7861C100.545 45.9482 102.698 46.5293 105.456 46.5293C109.762 46.5293 113.875 44.7861 117.795 41.2998L123.947 48.9219C118.706 53.5931 112.428 55.9287 105.114 55.9287C98.9615 55.9287 94.0169 54.2539 90.2799 50.9043C86.5429 47.5547 84.6744 43.1569 84.6744 37.7109C84.6288 34.7715 85.1985 31.9688 86.3834 29.3027C87.5683 26.6367 89.1747 24.3467 91.2027 22.4326C93.2307 20.5186 95.6461 19.0146 98.4488 17.9209C101.274 16.8044 104.225 16.2689 107.301 16.3145C113.044 16.3145 117.738 18.0348 121.383 21.4756C125.052 24.9163 126.886 29.3255 126.886 34.7031C126.886 36.207 126.75 37.8704 126.476 39.6934ZM115.47 31.7637C115.379 29.8268 114.559 28.2773 113.009 27.1152C111.483 25.9303 109.58 25.3379 107.301 25.3379C104.932 25.3379 102.824 25.9189 100.978 27.0811C99.1552 28.2432 97.8792 29.804 97.15 31.7637H115.47Z" stroke="black" stroke-width="2" mask="url(#path-1-outside-1_557_364)"/>
<path d="M126.476 39.6934H96.2955C96.5462 41.9036 97.4462 43.6012 98.9957 44.7861C100.545 45.9482 102.698 46.5293 105.456 46.5293C109.762 46.5293 113.875 44.7861 117.795 41.2998L123.947 48.9219C118.706 53.5931 112.428 55.9287 105.114 55.9287C98.9615 55.9287 94.0169 54.2539 90.2799 50.9043C86.5429 47.5547 84.6744 43.1569 84.6744 37.7109C84.6288 34.7715 85.1985 31.9688 86.3834 29.3027C87.5683 26.6367 89.1747 24.3467 91.2027 22.4326C93.2307 20.5186 95.6461 19.0146 98.4488 17.9209C101.274 16.8044 104.225 16.2689 107.301 16.3145C113.044 16.3145 117.738 18.0348 121.383 21.4756C125.052 24.9163 126.886 29.3255 126.886 34.7031C126.886 36.207 126.75 37.8704 126.476 39.6934ZM115.47 31.7637C115.379 29.8268 114.559 28.2773 113.009 27.1152C111.483 25.9303 109.58 25.3379 107.301 25.3379C104.932 25.3379 102.824 25.9189 100.978 27.0811C99.1552 28.2432 97.8792 29.804 97.15 31.7637H115.47Z" stroke="black" stroke-opacity="0.2" stroke-width="2" mask="url(#path-1-outside-1_557_364)"/>
<path d="M175.353 17.5791L168.756 54.6641H157.785L158.4 51.1777H158.195C155.552 53.9577 151.894 55.3477 147.223 55.3477C141.937 55.3477 137.801 53.8551 134.816 50.8701C131.785 47.8395 130.27 43.7607 130.27 38.6338C130.225 35.6943 130.726 32.8688 131.774 30.1572C132.845 27.4456 134.292 25.11 136.115 23.1504C137.961 21.168 140.182 19.6071 142.78 18.4678C145.378 17.3285 148.112 16.793 150.983 16.8613C153.216 16.8613 155.347 17.1917 157.375 17.8525C159.425 18.5133 161.169 19.4248 162.604 20.5869H162.741L163.39 17.5791H175.353ZM160.006 37.0957L161.066 31.4219C160.2 30.0547 159.027 28.9837 157.546 28.209C156.064 27.4115 154.435 27.0127 152.658 27.0127C149.696 27.0127 147.223 28.0609 145.241 30.1572C143.281 32.2308 142.301 34.7943 142.301 37.8477C142.301 42.61 144.796 44.9912 149.787 44.9912C152.316 44.9912 154.538 44.262 156.452 42.8037C158.389 41.3226 159.573 39.4199 160.006 37.0957Z" stroke="black" stroke-width="2" mask="url(#path-1-outside-1_557_364)"/>
<path d="M175.353 17.5791L168.756 54.6641H157.785L158.4 51.1777H158.195C155.552 53.9577 151.894 55.3477 147.223 55.3477C141.937 55.3477 137.801 53.8551 134.816 50.8701C131.785 47.8395 130.27 43.7607 130.27 38.6338C130.225 35.6943 130.726 32.8688 131.774 30.1572C132.845 27.4456 134.292 25.11 136.115 23.1504C137.961 21.168 140.182 19.6071 142.78 18.4678C145.378 17.3285 148.112 16.793 150.983 16.8613C153.216 16.8613 155.347 17.1917 157.375 17.8525C159.425 18.5133 161.169 19.4248 162.604 20.5869H162.741L163.39 17.5791H175.353ZM160.006 37.0957L161.066 31.4219C160.2 30.0547 159.027 28.9837 157.546 28.209C156.064 27.4115 154.435 27.0127 152.658 27.0127C149.696 27.0127 147.223 28.0609 145.241 30.1572C143.281 32.2308 142.301 34.7943 142.301 37.8477C142.301 42.61 144.796 44.9912 149.787 44.9912C152.316 44.9912 154.538 44.262 156.452 42.8037C158.389 41.3226 159.573 39.4199 160.006 37.0957Z" stroke="black" stroke-opacity="0.2" stroke-width="2" mask="url(#path-1-outside-1_557_364)"/>
<path d="M175.011 43.3848L186.256 40.2402C186.849 42.3822 188.114 44.0342 190.05 45.1963C192.01 46.3356 194.482 46.9053 197.467 46.9053C199.609 46.9053 201.307 46.666 202.56 46.1875C203.836 45.709 204.474 45.0596 204.474 44.2393C204.474 43.305 203.882 42.5531 202.697 41.9834C201.512 41.4137 199.302 40.8327 196.066 40.2402C190.164 39.1009 185.994 37.6312 183.556 35.8311C181.118 34.0309 179.899 31.513 179.899 28.2773C179.899 24.7454 181.517 21.8743 184.753 19.6641C188.011 17.431 192.204 16.3145 197.331 16.3145C202.298 16.3145 206.707 17.3398 210.558 19.3906C214.341 21.3958 216.768 24.096 217.838 27.4912L207.14 30.6699C206.434 29.0293 205.181 27.7077 203.38 26.7051C201.603 25.7025 199.587 25.2012 197.331 25.2012C195.553 25.2012 194.118 25.4632 193.024 25.9873C191.93 26.4886 191.383 27.1608 191.383 28.0039C191.383 28.8014 191.942 29.4508 193.058 29.9521C194.175 30.4535 196.248 30.9889 199.279 31.5586C205.363 32.7891 209.692 34.3613 212.267 36.2754C214.865 38.1895 216.164 40.7985 216.164 44.1025C216.164 47.5661 214.409 50.403 210.9 52.6133C207.414 54.8236 202.936 55.9287 197.467 55.9287C191.475 55.9287 186.484 54.8236 182.497 52.6133C178.509 50.3802 176.014 47.304 175.011 43.3848Z" stroke="black" stroke-width="2" mask="url(#path-1-outside-1_557_364)"/>
<path d="M175.011 43.3848L186.256 40.2402C186.849 42.3822 188.114 44.0342 190.05 45.1963C192.01 46.3356 194.482 46.9053 197.467 46.9053C199.609 46.9053 201.307 46.666 202.56 46.1875C203.836 45.709 204.474 45.0596 204.474 44.2393C204.474 43.305 203.882 42.5531 202.697 41.9834C201.512 41.4137 199.302 40.8327 196.066 40.2402C190.164 39.1009 185.994 37.6312 183.556 35.8311C181.118 34.0309 179.899 31.513 179.899 28.2773C179.899 24.7454 181.517 21.8743 184.753 19.6641C188.011 17.431 192.204 16.3145 197.331 16.3145C202.298 16.3145 206.707 17.3398 210.558 19.3906C214.341 21.3958 216.768 24.096 217.838 27.4912L207.14 30.6699C206.434 29.0293 205.181 27.7077 203.38 26.7051C201.603 25.7025 199.587 25.2012 197.331 25.2012C195.553 25.2012 194.118 25.4632 193.024 25.9873C191.93 26.4886 191.383 27.1608 191.383 28.0039C191.383 28.8014 191.942 29.4508 193.058 29.9521C194.175 30.4535 196.248 30.9889 199.279 31.5586C205.363 32.7891 209.692 34.3613 212.267 36.2754C214.865 38.1895 216.164 40.7985 216.164 44.1025C216.164 47.5661 214.409 50.403 210.9 52.6133C207.414 54.8236 202.936 55.9287 197.467 55.9287C191.475 55.9287 186.484 54.8236 182.497 52.6133C178.509 50.3802 176.014 47.304 175.011 43.3848Z" stroke="black" stroke-opacity="0.2" stroke-width="2" mask="url(#path-1-outside-1_557_364)"/>
<path d="M229.836 52.9209L218.761 17.5791H231.237L237.663 40.8896H237.799L252.497 17.5791H266.784L231.579 70.4209H218.078L229.836 52.9209Z" stroke="black" stroke-width="2" mask="url(#path-1-outside-1_557_364)"/>
<path d="M229.836 52.9209L218.761 17.5791H231.237L237.663 40.8896H237.799L252.497 17.5791H266.784L231.579 70.4209H218.078L229.836 52.9209Z" stroke="black" stroke-opacity="0.2" stroke-width="2" mask="url(#path-1-outside-1_557_364)"/>
<path d="M278.234 51.1094H278.097V54.6641H266.955V3.56543H279.088V20.3477H279.225C282.051 17.7956 285.799 16.5195 290.47 16.5195C294.116 16.4512 297.489 17.3057 300.587 19.083C303.686 20.8376 306.113 23.2415 307.868 26.2949C309.645 29.3255 310.5 32.6182 310.431 36.1729C310.477 38.8844 309.987 41.4479 308.962 43.8633C307.959 46.2786 306.569 48.3522 304.792 50.084C303.037 51.793 300.907 53.1374 298.4 54.1172C295.893 55.097 293.227 55.5641 290.402 55.5186C287.918 55.5186 285.617 55.1426 283.498 54.3906C281.401 53.6159 279.647 52.5221 278.234 51.1094ZM298.332 36.0361C298.332 33.3701 297.397 31.2054 295.529 29.542C293.683 27.8558 291.279 27.0127 288.317 27.0127C285.81 27.0127 283.646 27.6963 281.823 29.0635C280 30.4307 279.088 32.0599 279.088 33.9512V38.0186C279.088 39.9326 279.966 41.5618 281.72 42.9062C283.543 44.2507 285.742 44.9229 288.317 44.9229C291.393 44.9229 293.831 44.1253 295.631 42.5303C297.432 40.9124 298.332 38.7477 298.332 36.0361Z" stroke="black" stroke-width="2" mask="url(#path-1-outside-1_557_364)"/>
<path d="M278.234 51.1094H278.097V54.6641H266.955V3.56543H279.088V20.3477H279.225C282.051 17.7956 285.799 16.5195 290.47 16.5195C294.116 16.4512 297.489 17.3057 300.587 19.083C303.686 20.8376 306.113 23.2415 307.868 26.2949C309.645 29.3255 310.5 32.6182 310.431 36.1729C310.477 38.8844 309.987 41.4479 308.962 43.8633C307.959 46.2786 306.569 48.3522 304.792 50.084C303.037 51.793 300.907 53.1374 298.4 54.1172C295.893 55.097 293.227 55.5641 290.402 55.5186C287.918 55.5186 285.617 55.1426 283.498 54.3906C281.401 53.6159 279.647 52.5221 278.234 51.1094ZM298.332 36.0361C298.332 33.3701 297.397 31.2054 295.529 29.542C293.683 27.8558 291.279 27.0127 288.317 27.0127C285.81 27.0127 283.646 27.6963 281.823 29.0635C280 30.4307 279.088 32.0599 279.088 33.9512V38.0186C279.088 39.9326 279.966 41.5618 281.72 42.9062C283.543 44.2507 285.742 44.9229 288.317 44.9229C291.393 44.9229 293.831 44.1253 295.631 42.5303C297.432 40.9124 298.332 38.7477 298.332 36.0361Z" stroke="black" stroke-opacity="0.2" stroke-width="2" mask="url(#path-1-outside-1_557_364)"/>
<path d="M313.678 36.1729C313.633 33.4385 314.145 30.8294 315.216 28.3457C316.31 25.862 317.791 23.7314 319.66 21.9541C321.528 20.154 323.773 18.7412 326.393 17.7158C329.036 16.6904 331.805 16.2005 334.699 16.2461C338.664 16.2461 342.241 17.1234 345.431 18.8779C348.621 20.6097 351.105 23.0023 352.882 26.0557C354.66 29.0863 355.548 32.4587 355.548 36.1729V39.7617H325.641C325.823 41.8809 326.769 43.5329 328.478 44.7178C330.187 45.8799 332.511 46.4609 335.451 46.4609C339.279 46.4609 343.016 44.7406 346.662 41.2998L353.361 48.9902C350.763 51.3828 347.995 53.1488 345.055 54.2881C342.116 55.4274 338.778 55.9971 335.041 55.9971C328.569 55.9971 323.385 54.1969 319.489 50.5967C315.615 46.9736 313.678 42.1657 313.678 36.1729ZM343.791 31.7637C343.563 29.7585 342.651 28.1976 341.056 27.0811C339.484 25.9645 337.41 25.4062 334.836 25.4062C332.352 25.4062 330.267 25.9873 328.581 27.1494C326.894 28.3115 325.937 29.8496 325.71 31.7637H343.791Z" stroke="black" stroke-width="2" mask="url(#path-1-outside-1_557_364)"/>
<path d="M313.678 36.1729C313.633 33.4385 314.145 30.8294 315.216 28.3457C316.31 25.862 317.791 23.7314 319.66 21.9541C321.528 20.154 323.773 18.7412 326.393 17.7158C329.036 16.6904 331.805 16.2005 334.699 16.2461C338.664 16.2461 342.241 17.1234 345.431 18.8779C348.621 20.6097 351.105 23.0023 352.882 26.0557C354.66 29.0863 355.548 32.4587 355.548 36.1729V39.7617H325.641C325.823 41.8809 326.769 43.5329 328.478 44.7178C330.187 45.8799 332.511 46.4609 335.451 46.4609C339.279 46.4609 343.016 44.7406 346.662 41.2998L353.361 48.9902C350.763 51.3828 347.995 53.1488 345.055 54.2881C342.116 55.4274 338.778 55.9971 335.041 55.9971C328.569 55.9971 323.385 54.1969 319.489 50.5967C315.615 46.9736 313.678 42.1657 313.678 36.1729ZM343.791 31.7637C343.563 29.7585 342.651 28.1976 341.056 27.0811C339.484 25.9645 337.41 25.4062 334.836 25.4062C332.352 25.4062 330.267 25.9873 328.581 27.1494C326.894 28.3115 325.937 29.8496 325.71 31.7637H343.791Z" stroke="black" stroke-opacity="0.2" stroke-width="2" mask="url(#path-1-outside-1_557_364)"/>
<path d="M376.671 27.2861V40.6504C376.671 41.7897 376.934 42.5986 377.458 43.0771C377.982 43.5329 378.893 43.7607 380.192 43.7607H387.13V54.6641H378.38C373.641 54.6641 370.155 53.6159 367.921 51.5195C365.688 49.4004 364.572 46.1533 364.572 41.7783V27.2861H355.822V17.5791H364.572V7.97461H376.671V17.5791H388.532V27.2861H376.671Z" stroke="black" stroke-width="2" mask="url(#path-1-outside-1_557_364)"/>
<path d="M376.671 27.2861V40.6504C376.671 41.7897 376.934 42.5986 377.458 43.0771C377.982 43.5329 378.893 43.7607 380.192 43.7607H387.13V54.6641H378.38C373.641 54.6641 370.155 53.6159 367.921 51.5195C365.688 49.4004 364.572 46.1533 364.572 41.7783V27.2861H355.822V17.5791H364.572V7.97461H376.671V17.5791H388.532V27.2861H376.671Z" stroke="black" stroke-opacity="0.2" stroke-width="2" mask="url(#path-1-outside-1_557_364)"/>
<path d="M399.242 14.2168L398.894 13.8573C398.842 13.9083 398.73 13.9716 398.477 13.9716C398.268 13.9716 398.144 13.903 398.045 13.7656C397.931 13.5931 397.843 13.3 397.843 12.8281C397.843 12.3534 397.932 12.0656 398.043 11.9013C398.143 11.7625 398.267 11.6933 398.477 11.6933C398.725 11.6933 398.835 11.7572 398.888 11.8105L398.894 11.8164L398.9 11.8221C398.973 11.8901 399.064 12.0382 399.119 12.3441L399.205 12.8325L399.119 13.3208C399.064 13.626 398.973 13.7815 398.894 13.8575L399.242 14.2168ZM399.242 14.2168C399.421 14.0434 399.543 13.779 399.608 13.4234M399.242 14.2168C399.066 14.3867 398.811 14.4716 398.477 14.4716C398.114 14.4716 397.833 14.331 397.633 14.0498C397.44 13.7627 397.343 13.3554 397.343 12.8281C397.343 12.3007 397.44 11.8964 397.633 11.6152L399.608 13.4234M399.608 13.4234L399.611 13.4082L400.103 13.4955C400.103 13.496 400.103 13.4964 400.103 13.4969M399.608 13.4234L400.103 13.4969M400.103 13.4969L401.219 13.6982L400.103 13.4969ZM396.038 7.27632L396.038 7.27632L396.037 7.27688C395.283 7.58732 394.631 8.01567 394.088 8.56444C393.547 9.10622 393.125 9.75144 392.82 10.4938C392.514 11.2409 392.367 12.0263 392.378 12.8457C392.367 13.665 392.514 14.4529 392.82 15.205L392.82 15.205L392.82 15.2063C393.125 15.9487 393.547 16.5963 394.087 17.1434L394.087 17.1434L394.089 17.1455C394.632 17.6881 395.284 18.1131 396.037 18.4232L396.038 18.4238C396.803 18.7363 397.612 18.8857 398.46 18.874C399.301 18.8857 400.104 18.7362 400.864 18.4235C401.622 18.1138 402.279 17.6894 402.828 17.1476L402.828 17.1476L402.83 17.1455C403.377 16.5985 403.802 15.9505 404.107 15.2074C404.42 14.4548 404.57 13.6661 404.558 12.8457C404.57 12.0255 404.42 11.2395 404.107 10.4921C403.802 9.74924 403.376 9.10395 402.829 8.56243C402.28 8.0144 401.623 7.58666 400.864 7.2766C400.104 6.9639 399.301 6.81437 398.46 6.82608C397.612 6.81437 396.803 6.96381 396.038 7.27632ZM401.581 14.6963L401.58 14.6977C401.363 15.0964 401.082 15.4356 400.736 15.7175C401.309 15.2016 401.636 14.5362 401.717 13.7492L401.764 13.2884L401.308 13.2061L399.7 12.9161L399.236 12.8325L399.7 12.7489L401.308 12.4588L401.764 12.3766L401.717 11.9157C401.639 11.1599 401.334 10.5177 400.801 10.0155C400.881 10.0853 400.959 10.1595 401.034 10.2381C401.708 10.9428 402.046 11.8013 402.046 12.8457C402.046 13.5204 401.89 14.1343 401.581 14.6963ZM396.075 15.4741C396.626 16.0859 397.331 16.4248 398.158 16.5016C397.247 16.4396 396.505 16.0917 395.904 15.4626C395.229 14.7517 394.89 13.8897 394.89 12.8457C394.89 11.8013 395.229 10.9428 395.903 10.2381C396.291 9.83194 396.738 9.54293 397.251 9.37233C396.806 9.54482 396.412 9.81684 396.075 10.1909L396.075 10.1908L396.069 10.1982C395.451 10.9118 395.156 11.8011 395.156 12.8281C395.156 13.86 395.451 14.7526 396.069 15.4668L396.069 15.4669L396.075 15.4741Z" fill="white"/>
<path d="M399.242 14.2168L398.894 13.8573C398.842 13.9083 398.73 13.9716 398.477 13.9716C398.268 13.9716 398.144 13.903 398.045 13.7656C397.931 13.5931 397.843 13.3 397.843 12.8281C397.843 12.3534 397.932 12.0656 398.043 11.9013C398.143 11.7625 398.267 11.6933 398.477 11.6933C398.725 11.6933 398.835 11.7572 398.888 11.8105L398.894 11.8164L398.9 11.8221C398.973 11.8901 399.064 12.0382 399.119 12.3441L399.205 12.8325L399.119 13.3208C399.064 13.626 398.973 13.7815 398.894 13.8575L399.242 14.2168ZM399.242 14.2168C399.421 14.0434 399.543 13.779 399.608 13.4234M399.242 14.2168C399.066 14.3867 398.811 14.4716 398.477 14.4716C398.114 14.4716 397.833 14.331 397.633 14.0498C397.44 13.7627 397.343 13.3554 397.343 12.8281C397.343 12.3007 397.44 11.8964 397.633 11.6152L399.608 13.4234M399.608 13.4234L399.611 13.4082L400.103 13.4955C400.103 13.496 400.103 13.4964 400.103 13.4969M399.608 13.4234L400.103 13.4969M400.103 13.4969L401.219 13.6982L400.103 13.4969ZM396.038 7.27632L396.038 7.27632L396.037 7.27688C395.283 7.58732 394.631 8.01567 394.088 8.56444C393.547 9.10622 393.125 9.75144 392.82 10.4938C392.514 11.2409 392.367 12.0263 392.378 12.8457C392.367 13.665 392.514 14.4529 392.82 15.205L392.82 15.205L392.82 15.2063C393.125 15.9487 393.547 16.5963 394.087 17.1434L394.087 17.1434L394.089 17.1455C394.632 17.6881 395.284 18.1131 396.037 18.4232L396.038 18.4238C396.803 18.7363 397.612 18.8857 398.46 18.874C399.301 18.8857 400.104 18.7362 400.864 18.4235C401.622 18.1138 402.279 17.6894 402.828 17.1476L402.828 17.1476L402.83 17.1455C403.377 16.5985 403.802 15.9505 404.107 15.2074C404.42 14.4548 404.57 13.6661 404.558 12.8457C404.57 12.0255 404.42 11.2395 404.107 10.4921C403.802 9.74924 403.376 9.10395 402.829 8.56243C402.28 8.0144 401.623 7.58666 400.864 7.2766C400.104 6.9639 399.301 6.81437 398.46 6.82608C397.612 6.81437 396.803 6.96381 396.038 7.27632ZM401.581 14.6963L401.58 14.6977C401.363 15.0964 401.082 15.4356 400.736 15.7175C401.309 15.2016 401.636 14.5362 401.717 13.7492L401.764 13.2884L401.308 13.2061L399.7 12.9161L399.236 12.8325L399.7 12.7489L401.308 12.4588L401.764 12.3766L401.717 11.9157C401.639 11.1599 401.334 10.5177 400.801 10.0155C400.881 10.0853 400.959 10.1595 401.034 10.2381C401.708 10.9428 402.046 11.8013 402.046 12.8457C402.046 13.5204 401.89 14.1343 401.581 14.6963ZM396.075 15.4741C396.626 16.0859 397.331 16.4248 398.158 16.5016C397.247 16.4396 396.505 16.0917 395.904 15.4626C395.229 14.7517 394.89 13.8897 394.89 12.8457C394.89 11.8013 395.229 10.9428 395.903 10.2381C396.291 9.83194 396.738 9.54293 397.251 9.37233C396.806 9.54482 396.412 9.81684 396.075 10.1909L396.075 10.1908L396.069 10.1982C395.451 10.9118 395.156 11.8011 395.156 12.8281C395.156 13.86 395.451 14.7526 396.069 15.4668L396.069 15.4669L396.075 15.4741Z" stroke="black"/>
<path d="M399.242 14.2168L398.894 13.8573C398.842 13.9083 398.73 13.9716 398.477 13.9716C398.268 13.9716 398.144 13.903 398.045 13.7656C397.931 13.5931 397.843 13.3 397.843 12.8281C397.843 12.3534 397.932 12.0656 398.043 11.9013C398.143 11.7625 398.267 11.6933 398.477 11.6933C398.725 11.6933 398.835 11.7572 398.888 11.8105L398.894 11.8164L398.9 11.8221C398.973 11.8901 399.064 12.0382 399.119 12.3441L399.205 12.8325L399.119 13.3208C399.064 13.626 398.973 13.7815 398.894 13.8575L399.242 14.2168ZM399.242 14.2168C399.421 14.0434 399.543 13.779 399.608 13.4234M399.242 14.2168C399.066 14.3867 398.811 14.4716 398.477 14.4716C398.114 14.4716 397.833 14.331 397.633 14.0498C397.44 13.7627 397.343 13.3554 397.343 12.8281C397.343 12.3007 397.44 11.8964 397.633 11.6152L399.608 13.4234M399.608 13.4234L399.611 13.4082L400.103 13.4955C400.103 13.496 400.103 13.4964 400.103 13.4969M399.608 13.4234L400.103 13.4969M400.103 13.4969L401.219 13.6982L400.103 13.4969ZM396.038 7.27632L396.038 7.27632L396.037 7.27688C395.283 7.58732 394.631 8.01567 394.088 8.56444C393.547 9.10622 393.125 9.75144 392.82 10.4938C392.514 11.2409 392.367 12.0263 392.378 12.8457C392.367 13.665 392.514 14.4529 392.82 15.205L392.82 15.205L392.82 15.2063C393.125 15.9487 393.547 16.5963 394.087 17.1434L394.087 17.1434L394.089 17.1455C394.632 17.6881 395.284 18.1131 396.037 18.4232L396.038 18.4238C396.803 18.7363 397.612 18.8857 398.46 18.874C399.301 18.8857 400.104 18.7362 400.864 18.4235C401.622 18.1138 402.279 17.6894 402.828 17.1476L402.828 17.1476L402.83 17.1455C403.377 16.5985 403.802 15.9505 404.107 15.2074C404.42 14.4548 404.57 13.6661 404.558 12.8457C404.57 12.0255 404.42 11.2395 404.107 10.4921C403.802 9.74924 403.376 9.10395 402.829 8.56243C402.28 8.0144 401.623 7.58666 400.864 7.2766C400.104 6.9639 399.301 6.81437 398.46 6.82608C397.612 6.81437 396.803 6.96381 396.038 7.27632ZM401.581 14.6963L401.58 14.6977C401.363 15.0964 401.082 15.4356 400.736 15.7175C401.309 15.2016 401.636 14.5362 401.717 13.7492L401.764 13.2884L401.308 13.2061L399.7 12.9161L399.236 12.8325L399.7 12.7489L401.308 12.4588L401.764 12.3766L401.717 11.9157C401.639 11.1599 401.334 10.5177 400.801 10.0155C400.881 10.0853 400.959 10.1595 401.034 10.2381C401.708 10.9428 402.046 11.8013 402.046 12.8457C402.046 13.5204 401.89 14.1343 401.581 14.6963ZM396.075 15.4741C396.626 16.0859 397.331 16.4248 398.158 16.5016C397.247 16.4396 396.505 16.0917 395.904 15.4626C395.229 14.7517 394.89 13.8897 394.89 12.8457C394.89 11.8013 395.229 10.9428 395.903 10.2381C396.291 9.83194 396.738 9.54293 397.251 9.37233C396.806 9.54482 396.412 9.81684 396.075 10.1909L396.075 10.1908L396.069 10.1982C395.451 10.9118 395.156 11.8011 395.156 12.8281C395.156 13.86 395.451 14.7526 396.069 15.4668L396.069 15.4669L396.075 15.4741Z" stroke="black" stroke-opacity="0.2"/>
<path d="M18.4889 43.4817C18.8631 43.0404 19.0943 42.52 19.1823 41.9814L50.8169 41.9814C50.9049 42.52 51.1361 43.0404 51.5103 43.4817L60.246 53.7826C61.5166 55.2809 60.2088 57.5462 58.2759 57.1949L44.9872 54.78C43.4986 54.5095 42.0327 55.3558 41.5227 56.7803L36.9697 69.496C36.3074 71.3456 33.6917 71.3456 33.0295 69.496L28.4765 56.7803C27.9665 55.3558 26.5006 54.5095 25.012 54.78L11.7233 57.1949C9.79042 57.5462 8.48256 55.2809 9.75321 53.7826L18.4889 43.4817Z" fill="#B79DFF"/>
<path d="M18.4889 43.4817C18.8631 43.0404 19.0943 42.52 19.1823 41.9814L50.8169 41.9814C50.9049 42.52 51.1361 43.0404 51.5103 43.4817L60.246 53.7826C61.5166 55.2809 60.2088 57.5462 58.2759 57.1949L44.9872 54.78C43.4986 54.5095 42.0327 55.3558 41.5227 56.7803L36.9697 69.496C36.3074 71.3456 33.6917 71.3456 33.0295 69.496L28.4765 56.7803C27.9665 55.3558 26.5006 54.5095 25.012 54.78L11.7233 57.1949C9.79042 57.5462 8.48256 55.2809 9.75321 53.7826L18.4889 43.4817Z" stroke="black"/>
<path d="M18.4889 43.4817C18.8631 43.0404 19.0943 42.52 19.1823 41.9814L50.8169 41.9814C50.9049 42.52 51.1361 43.0404 51.5103 43.4817L60.246 53.7826C61.5166 55.2809 60.2088 57.5462 58.2759 57.1949L44.9872 54.78C43.4986 54.5095 42.0327 55.3558 41.5227 56.7803L36.9697 69.496C36.3074 71.3456 33.6917 71.3456 33.0295 69.496L28.4765 56.7803C27.9665 55.3558 26.5006 54.5095 25.012 54.78L11.7233 57.1949C9.79042 57.5462 8.48256 55.2809 9.75321 53.7826L18.4889 43.4817Z" stroke="black" stroke-opacity="0.2"/>
<path d="M66.8738 21.7974C68.5438 25.8291 69.4332 30.1396 69.4964 34.5H54.5551C54.4938 32.1016 53.9917 29.7334 53.0725 27.5141C52.0894 25.1408 50.6485 22.9844 48.8321 21.1679C47.0156 19.3515 44.8592 17.9106 42.4859 16.9275C40.1125 15.9445 37.5689 15.4385 35 15.4385C32.4311 15.4385 29.8874 15.9445 27.5141 16.9275C25.1408 17.9106 22.9844 19.3515 21.1679 21.1679C19.3515 22.9844 17.9106 25.1408 16.9275 27.5141C16.0083 29.7334 15.5062 32.1016 15.4449 34.5H0.503623C0.566819 30.1396 1.45617 25.8291 3.12615 21.7974C4.85994 17.6117 7.40119 13.8084 10.6048 10.6048C13.8084 7.4012 17.6117 4.85994 21.7974 3.12616C25.9832 1.39237 30.4694 0.5 35 0.5C39.5306 0.5 44.0168 1.39237 48.2026 3.12616C52.3883 4.85994 56.1916 7.40119 59.3952 10.6048C62.5988 13.8084 65.1401 17.6117 66.8738 21.7974Z" fill="#6640D2"/>
<path d="M66.8738 21.7974C68.5438 25.8291 69.4332 30.1396 69.4964 34.5H54.5551C54.4938 32.1016 53.9917 29.7334 53.0725 27.5141C52.0894 25.1408 50.6485 22.9844 48.8321 21.1679C47.0156 19.3515 44.8592 17.9106 42.4859 16.9275C40.1125 15.9445 37.5689 15.4385 35 15.4385C32.4311 15.4385 29.8874 15.9445 27.5141 16.9275C25.1408 17.9106 22.9844 19.3515 21.1679 21.1679C19.3515 22.9844 17.9106 25.1408 16.9275 27.5141C16.0083 29.7334 15.5062 32.1016 15.4449 34.5H0.503623C0.566819 30.1396 1.45617 25.8291 3.12615 21.7974C4.85994 17.6117 7.40119 13.8084 10.6048 10.6048C13.8084 7.4012 17.6117 4.85994 21.7974 3.12616C25.9832 1.39237 30.4694 0.5 35 0.5C39.5306 0.5 44.0168 1.39237 48.2026 3.12616C52.3883 4.85994 56.1916 7.40119 59.3952 10.6048C62.5988 13.8084 65.1401 17.6117 66.8738 21.7974Z" stroke="black"/>
<path d="M66.8738 21.7974C68.5438 25.8291 69.4332 30.1396 69.4964 34.5H54.5551C54.4938 32.1016 53.9917 29.7334 53.0725 27.5141C52.0894 25.1408 50.6485 22.9844 48.8321 21.1679C47.0156 19.3515 44.8592 17.9106 42.4859 16.9275C40.1125 15.9445 37.5689 15.4385 35 15.4385C32.4311 15.4385 29.8874 15.9445 27.5141 16.9275C25.1408 17.9106 22.9844 19.3515 21.1679 21.1679C19.3515 22.9844 17.9106 25.1408 16.9275 27.5141C16.0083 29.7334 15.5062 32.1016 15.4449 34.5H0.503623C0.566819 30.1396 1.45617 25.8291 3.12615 21.7974C4.85994 17.6117 7.40119 13.8084 10.6048 10.6048C13.8084 7.4012 17.6117 4.85994 21.7974 3.12616C25.9832 1.39237 30.4694 0.5 35 0.5C39.5306 0.5 44.0168 1.39237 48.2026 3.12616C52.3883 4.85994 56.1916 7.40119 59.3952 10.6048C62.5988 13.8084 65.1401 17.6117 66.8738 21.7974Z" stroke="black" stroke-opacity="0.2"/>
<path d="M44.1686 32.1189C44.5681 33.0836 44.8005 34.1079 44.857 35.1481H35.6483L26.4397 35.1481C26.4961 34.1079 26.7285 33.0836 27.1281 32.1189C27.5916 31 28.2709 29.9834 29.1272 29.127C29.9836 28.2707 31.0002 27.5914 32.1191 27.1279C33.238 26.6644 34.4373 26.4259 35.6483 26.4259C36.8594 26.4259 38.0586 26.6644 39.1775 27.1279C40.2964 27.5914 41.3131 28.2707 42.1694 29.127C43.0258 29.9834 43.7051 31 44.1686 32.1189Z" fill="#6640D2"/>
<path d="M44.1686 32.1189C44.5681 33.0836 44.8005 34.1079 44.857 35.1481H35.6483L26.4397 35.1481C26.4961 34.1079 26.7285 33.0836 27.1281 32.1189C27.5916 31 28.2709 29.9834 29.1272 29.127C29.9836 28.2707 31.0002 27.5914 32.1191 27.1279C33.238 26.6644 34.4373 26.4259 35.6483 26.4259C36.8594 26.4259 38.0586 26.6644 39.1775 27.1279C40.2964 27.5914 41.3131 28.2707 42.1694 29.127C43.0258 29.9834 43.7051 31 44.1686 32.1189Z" stroke="black"/>
<path d="M44.1686 32.1189C44.5681 33.0836 44.8005 34.1079 44.857 35.1481H35.6483L26.4397 35.1481C26.4961 34.1079 26.7285 33.0836 27.1281 32.1189C27.5916 31 28.2709 29.9834 29.1272 29.127C29.9836 28.2707 31.0002 27.5914 32.1191 27.1279C33.238 26.6644 34.4373 26.4259 35.6483 26.4259C36.8594 26.4259 38.0586 26.6644 39.1775 27.1279C40.2964 27.5914 41.3131 28.2707 42.1694 29.127C43.0258 29.9834 43.7051 31 44.1686 32.1189Z" stroke="black" stroke-opacity="0.2"/>
</svg>
