<svg width="248" height="54" viewBox="0 0 248 54" fill="none" xmlns="http://www.w3.org/2000/svg">
<circle cx="27" cy="27" r="6.5" stroke="#5D6AD2" stroke-width="3.61539"/>
<circle cx="27" cy="27" r="19" stroke="#0C0C0C" stroke-width="16"/>
<path d="M78.3064 16.1009V23.9313H88.8923V28.898H78.3064V37.1759H90.2436V42.2768H72V11H90.2436V16.1009H78.3064Z" fill="#020202"/>
<path d="M94.353 29.7929C94.353 27.2872 94.8485 25.0649 95.8395 23.1259C96.8606 21.187 98.227 19.6955 99.9387 18.6514C101.681 17.6074 103.617 17.0853 105.75 17.0853C107.612 17.0853 109.233 17.4582 110.615 18.204C112.026 18.9497 113.152 19.8894 113.993 21.0229V17.488H120.345V42.2768H113.993V38.6524C113.182 39.8158 112.056 40.7853 110.615 41.5609C109.203 42.3066 107.567 42.6795 105.705 42.6795C103.602 42.6795 101.681 42.1426 99.9387 41.0687C98.227 39.9948 96.8606 38.4884 95.8395 36.5494C94.8485 34.5806 94.353 32.3285 94.353 29.7929ZM113.993 29.8824C113.993 28.3611 113.693 27.0635 113.092 25.9896C112.492 24.8859 111.681 24.0506 110.66 23.4839C109.639 22.8873 108.543 22.589 107.371 22.589C106.2 22.589 105.119 22.8724 104.128 23.4391C103.137 24.0059 102.326 24.8411 101.696 25.9448C101.095 27.0187 100.795 28.3014 100.795 29.7929C100.795 31.2844 101.095 32.5969 101.696 33.7305C102.326 34.8342 103.137 35.6844 104.128 36.281C105.149 36.8776 106.23 37.1759 107.371 37.1759C108.543 37.1759 109.639 36.8925 110.66 36.3257C111.681 35.7291 112.492 34.8939 113.092 33.82C113.693 32.7163 113.993 31.4037 113.993 29.8824Z" fill="#020202"/>
<path d="M136.054 42.6795C134.012 42.6795 132.18 42.3215 130.558 41.6056C128.936 40.8599 127.645 39.8606 126.684 38.6077C125.753 37.3548 125.243 35.9677 125.153 34.4464H131.504C131.624 35.401 132.09 36.1915 132.9 36.8179C133.741 37.4443 134.777 37.7575 136.009 37.7575C137.21 37.7575 138.141 37.5189 138.801 37.0416C139.492 36.5643 139.838 35.9528 139.838 35.2071C139.838 34.4017 139.417 33.8051 138.576 33.4173C137.765 32.9997 136.459 32.5522 134.657 32.0749C132.795 31.6275 131.264 31.1651 130.063 30.6878C128.891 30.2105 127.87 29.4797 126.999 28.4953C126.159 27.5109 125.738 26.1835 125.738 24.513C125.738 23.1408 126.129 21.888 126.909 20.7544C127.72 19.6209 128.861 18.726 130.333 18.0697C131.834 17.4135 133.591 17.0853 135.603 17.0853C138.576 17.0853 140.949 17.8311 142.72 19.3226C144.492 20.7843 145.468 22.768 145.648 25.2737H139.612C139.522 24.2893 139.102 23.5137 138.351 22.9469C137.63 22.3503 136.654 22.052 135.423 22.052C134.282 22.052 133.396 22.2608 132.765 22.6785C132.165 23.0961 131.864 23.6778 131.864 24.4235C131.864 25.2588 132.285 25.9001 133.126 26.3476C133.967 26.7652 135.273 27.1977 137.045 27.6452C138.847 28.0926 140.333 28.555 141.504 29.0323C142.675 29.5095 143.681 30.2553 144.522 31.2695C145.393 32.2539 145.844 33.5664 145.874 35.2071C145.874 36.6389 145.468 37.9216 144.657 39.0552C143.877 40.1887 142.735 41.0836 141.234 41.7399C139.762 42.3663 138.036 42.6795 136.054 42.6795Z" fill="#020202"/>
<path d="M174.925 17.488L159.474 54H152.762L158.168 41.6504L148.168 17.488H155.24L161.681 34.8044L168.213 17.488H174.925Z" fill="#020202"/>
<path d="M196.163 26.2581C197.934 26.5862 199.391 27.4662 200.532 28.898C201.673 30.3299 202.244 31.9705 202.244 33.82C202.244 35.4905 201.823 36.9671 200.983 38.2497C200.172 39.5026 198.985 40.487 197.424 41.2029C195.862 41.9188 194.015 42.2768 191.883 42.2768H178.324V11.0447H191.298C193.43 11.0447 195.262 11.3878 196.793 12.0739C198.355 12.76 199.526 13.7145 200.307 14.9376C201.118 16.1606 201.523 17.5477 201.523 19.0989C201.523 20.9185 201.028 22.4398 200.037 23.6629C199.076 24.8859 197.784 25.751 196.163 26.2581ZM184.631 23.9313H190.397C191.898 23.9313 193.054 23.6032 193.865 22.9469C194.676 22.2608 195.082 21.2914 195.082 20.0385C195.082 18.7856 194.676 17.8162 193.865 17.1301C193.054 16.444 191.898 16.1009 190.397 16.1009H184.631V23.9313ZM190.982 37.1759C192.514 37.1759 193.7 36.8179 194.541 36.102C195.412 35.3861 195.847 34.3718 195.847 33.0593C195.847 31.717 195.397 30.6729 194.496 29.9272C193.595 29.1516 192.379 28.7638 190.847 28.7638H184.631V37.1759H190.982Z" fill="#5D6AD2"/>
<path d="M230.469 29.3455C230.469 30.2404 230.409 31.0458 230.288 31.7617H212.045C212.195 33.5515 212.826 34.9535 213.937 35.9677C215.048 36.982 216.414 37.4891 218.036 37.4891C220.378 37.4891 222.045 36.4898 223.036 34.4912H229.838C229.117 36.8776 227.736 38.8463 225.694 40.3975C223.652 41.9188 221.144 42.6795 218.171 42.6795C215.769 42.6795 213.606 42.1575 211.684 41.1134C209.793 40.0395 208.306 38.5331 207.225 36.5942C206.174 34.6552 205.648 32.418 205.648 29.8824C205.648 27.317 206.174 25.0649 207.225 23.1259C208.276 21.187 209.747 19.6955 211.639 18.6514C213.531 17.6074 215.709 17.0853 218.171 17.0853C220.544 17.0853 222.661 17.5924 224.523 18.6067C226.415 19.6209 227.871 21.0676 228.892 22.9469C229.943 24.7964 230.469 26.9292 230.469 29.3455ZM223.937 27.5557C223.907 25.9448 223.321 24.6622 222.18 23.7076C221.039 22.7232 219.643 22.231 217.991 22.231C216.429 22.231 215.108 22.7083 214.027 23.6629C212.976 24.5876 212.33 25.8852 212.09 27.5557H223.937Z" fill="#5D6AD2"/>
<path d="M242.414 22.6337V34.6254C242.414 35.4606 242.609 36.0721 243 36.4599C243.42 36.8179 244.111 36.9969 245.072 36.9969H248V42.2768H244.036C238.721 42.2768 236.063 39.7114 236.063 34.5806V22.6337H233.09V17.488H236.063V11.358H242.414V17.488H248V22.6337H242.414Z" fill="#5D6AD2"/>
</svg>
