<svg width="405" height="72" viewBox="0 0 405 72" fill="none" xmlns="http://www.w3.org/2000/svg">
<path d="M126.476 36.6934H96.2955C96.5462 38.9036 97.4462 40.6012 98.9957 41.7861C100.545 42.9482 102.698 43.5293 105.456 43.5293C109.762 43.5293 113.875 41.7861 117.795 38.2998L123.947 45.9219C118.706 50.5931 112.428 52.9287 105.114 52.9287C98.9615 52.9287 94.0169 51.2539 90.2799 47.9043C86.5429 44.5547 84.6744 40.1569 84.6744 34.7109C84.6288 31.7715 85.1985 28.9688 86.3834 26.3027C87.5683 23.6367 89.1747 21.3467 91.2027 19.4326C93.2307 17.5186 95.6461 16.0146 98.4488 14.9209C101.274 13.8044 104.225 13.2689 107.301 13.3145C113.044 13.3145 117.738 15.0348 121.383 18.4756C125.052 21.9163 126.886 26.3255 126.886 31.7031C126.886 33.207 126.75 34.8704 126.476 36.6934ZM115.47 28.7637C115.379 26.8268 114.559 25.2773 113.009 24.1152C111.483 22.9303 109.58 22.3379 107.301 22.3379C104.932 22.3379 102.824 22.9189 100.978 24.0811C99.1552 25.2432 97.8792 26.804 97.15 28.7637H115.47Z" fill="black"/>
<path d="M175.353 14.5791L168.756 51.6641H157.785L158.4 48.1777H158.195C155.552 50.9577 151.894 52.3477 147.223 52.3477C141.937 52.3477 137.801 50.8551 134.816 47.8701C131.785 44.8395 130.27 40.7607 130.27 35.6338C130.225 32.6943 130.726 29.8688 131.774 27.1572C132.845 24.4456 134.292 22.11 136.115 20.1504C137.961 18.168 140.182 16.6071 142.78 15.4678C145.378 14.3285 148.112 13.793 150.983 13.8613C153.216 13.8613 155.347 14.1917 157.375 14.8525C159.425 15.5133 161.169 16.4248 162.604 17.5869H162.741L163.39 14.5791H175.353ZM160.006 34.0957L161.066 28.4219C160.2 27.0547 159.027 25.9837 157.546 25.209C156.064 24.4115 154.435 24.0127 152.658 24.0127C149.696 24.0127 147.223 25.0609 145.241 27.1572C143.281 29.2308 142.301 31.7943 142.301 34.8477C142.301 39.61 144.796 41.9912 149.787 41.9912C152.316 41.9912 154.538 41.262 156.452 39.8037C158.389 38.3226 159.573 36.4199 160.006 34.0957Z" fill="black"/>
<path d="M175.011 40.3848L186.256 37.2402C186.849 39.3822 188.114 41.0342 190.05 42.1963C192.01 43.3356 194.482 43.9053 197.467 43.9053C199.609 43.9053 201.307 43.666 202.56 43.1875C203.836 42.709 204.474 42.0596 204.474 41.2393C204.474 40.305 203.882 39.5531 202.697 38.9834C201.512 38.4137 199.302 37.8327 196.066 37.2402C190.164 36.1009 185.994 34.6312 183.556 32.8311C181.118 31.0309 179.899 28.513 179.899 25.2773C179.899 21.7454 181.517 18.8743 184.753 16.6641C188.011 14.431 192.204 13.3145 197.331 13.3145C202.298 13.3145 206.707 14.3398 210.558 16.3906C214.341 18.3958 216.768 21.096 217.838 24.4912L207.14 27.6699C206.434 26.0293 205.181 24.7077 203.38 23.7051C201.603 22.7025 199.587 22.2012 197.331 22.2012C195.553 22.2012 194.118 22.4632 193.024 22.9873C191.93 23.4886 191.383 24.1608 191.383 25.0039C191.383 25.8014 191.942 26.4508 193.058 26.9521C194.175 27.4535 196.248 27.9889 199.279 28.5586C205.363 29.7891 209.692 31.3613 212.267 33.2754C214.865 35.1895 216.164 37.7985 216.164 41.1025C216.164 44.5661 214.409 47.403 210.9 49.6133C207.414 51.8236 202.936 52.9287 197.467 52.9287C191.475 52.9287 186.484 51.8236 182.497 49.6133C178.509 47.3802 176.014 44.304 175.011 40.3848Z" fill="black"/>
<path d="M229.836 49.9209L218.761 14.5791H231.237L237.663 37.8896H237.799L252.497 14.5791H266.784L231.579 67.4209H218.078L229.836 49.9209Z" fill="black"/>
<path d="M278.234 48.1094H278.097V51.6641H266.955V0.56543H279.088V17.3477H279.225C282.051 14.7956 285.799 13.5195 290.47 13.5195C294.116 13.4512 297.489 14.3057 300.587 16.083C303.686 17.8376 306.113 20.2415 307.868 23.2949C309.645 26.3255 310.5 29.6182 310.431 33.1729C310.477 35.8844 309.987 38.4479 308.962 40.8633C307.959 43.2786 306.569 45.3522 304.792 47.084C303.037 48.793 300.907 50.1374 298.4 51.1172C295.893 52.097 293.227 52.5641 290.402 52.5186C287.918 52.5186 285.617 52.1426 283.498 51.3906C281.401 50.6159 279.647 49.5221 278.234 48.1094ZM298.332 33.0361C298.332 30.3701 297.397 28.2054 295.529 26.542C293.683 24.8558 291.279 24.0127 288.317 24.0127C285.81 24.0127 283.646 24.6963 281.823 26.0635C280 27.4307 279.088 29.0599 279.088 30.9512V35.0186C279.088 36.9326 279.966 38.5618 281.72 39.9062C283.543 41.2507 285.742 41.9229 288.317 41.9229C291.393 41.9229 293.831 41.1253 295.631 39.5303C297.432 37.9124 298.332 35.7477 298.332 33.0361Z" fill="black"/>
<path d="M313.678 33.1729C313.633 30.4385 314.145 27.8294 315.216 25.3457C316.31 22.862 317.791 20.7314 319.66 18.9541C321.528 17.154 323.773 15.7412 326.393 14.7158C329.036 13.6904 331.805 13.2005 334.699 13.2461C338.664 13.2461 342.241 14.1234 345.431 15.8779C348.621 17.6097 351.105 20.0023 352.882 23.0557C354.66 26.0863 355.548 29.4587 355.548 33.1729V36.7617H325.641C325.823 38.8809 326.769 40.5329 328.478 41.7178C330.187 42.8799 332.511 43.4609 335.451 43.4609C339.279 43.4609 343.016 41.7406 346.662 38.2998L353.361 45.9902C350.763 48.3828 347.995 50.1488 345.055 51.2881C342.116 52.4274 338.778 52.9971 335.041 52.9971C328.569 52.9971 323.385 51.1969 319.489 47.5967C315.615 43.9736 313.678 39.1657 313.678 33.1729ZM343.791 28.7637C343.563 26.7585 342.651 25.1976 341.056 24.0811C339.484 22.9645 337.41 22.4062 334.836 22.4062C332.352 22.4062 330.267 22.9873 328.581 24.1494C326.894 25.3115 325.937 26.8496 325.71 28.7637H343.791Z" fill="black"/>
<path d="M376.671 24.2861V37.6504C376.671 38.7897 376.934 39.5986 377.458 40.0771C377.982 40.5329 378.893 40.7607 380.192 40.7607H387.13V51.6641H378.38C373.641 51.6641 370.155 50.6159 367.921 48.5195C365.688 46.4004 364.572 43.1533 364.572 38.7783V24.2861H355.822V14.5791H364.572V4.97461H376.671V14.5791H388.532V24.2861H376.671Z" fill="black"/>
<path d="M392.879 9.84566C392.867 9.0898 393.002 8.3691 393.283 7.68355C393.564 6.998 393.951 6.40914 394.443 5.91695C394.935 5.4189 395.53 5.02632 396.227 4.73921C396.93 4.45211 397.674 4.31441 398.46 4.32613C399.239 4.31441 399.977 4.45211 400.674 4.73921C401.378 5.02632 401.978 5.4189 402.476 5.91695C402.974 6.40914 403.364 6.998 403.645 7.68355C403.932 8.3691 404.07 9.0898 404.058 9.84566C404.07 10.6015 403.932 11.3252 403.645 12.0166C403.364 12.7021 402.974 13.2939 402.476 13.7919C401.978 14.2841 401.378 14.6738 400.674 14.9609C399.977 15.248 399.239 15.3857 398.46 15.374C397.674 15.3857 396.93 15.248 396.227 14.9609C395.53 14.6738 394.935 14.2841 394.443 13.7919C393.951 13.2939 393.564 12.7021 393.283 12.0166C393.002 11.3252 392.867 10.6015 392.879 9.84566ZM402.546 9.84566C402.546 8.67964 402.163 7.69527 401.395 6.89253C400.628 6.0898 399.649 5.68843 398.46 5.68843C397.282 5.68843 396.309 6.0898 395.542 6.89253C394.774 7.69527 394.39 8.67964 394.39 9.84566C394.39 11.0117 394.774 11.999 395.542 12.8076C396.309 13.6103 397.282 14.0117 398.46 14.0117C399.233 14.0117 399.933 13.8242 400.56 13.4492C401.187 13.0742 401.673 12.5703 402.019 11.9375C402.371 11.2988 402.546 10.6015 402.546 9.84566ZM395.656 9.82808C395.656 8.9023 395.92 8.13472 396.447 7.52535C396.974 6.93941 397.669 6.64644 398.53 6.64644C399.256 6.64644 399.869 6.86324 400.367 7.29683C400.865 7.72457 401.149 8.28121 401.219 8.96675L399.611 9.25679C399.546 8.89351 399.423 8.62691 399.242 8.45699C399.066 8.28121 398.811 8.19332 398.477 8.19332C398.114 8.19332 397.833 8.33394 397.633 8.61519C397.44 8.89644 397.343 9.30074 397.343 9.82808C397.343 10.3554 397.44 10.7627 397.633 11.0498C397.833 11.331 398.114 11.4716 398.477 11.4716C398.811 11.4716 399.066 11.3867 399.242 11.2168C399.423 11.041 399.546 10.7714 399.611 10.4082L401.219 10.6982C401.149 11.3837 400.865 11.9433 400.367 12.3769C399.869 12.8046 399.256 13.0185 398.53 13.0185C397.669 13.0185 396.974 12.7255 396.447 12.1396C395.92 11.5302 395.656 10.7597 395.656 9.82808Z" fill="black"/>
<path fill-rule="evenodd" clip-rule="evenodd" d="M18.7228 41.4814C18.7228 42.078 18.5177 42.6746 18.1075 43.1583L9.37187 53.4592C7.79762 55.3155 9.41797 58.122 11.8127 57.6868L25.1014 55.272C26.3494 55.0452 27.5782 55.7546 28.0058 56.9488L32.5588 69.6646C33.3792 71.9561 36.6199 71.9561 37.4404 69.6646L41.9934 56.9488C42.421 55.7546 43.6498 55.0452 44.8978 55.272L58.1865 57.6868C60.5812 58.122 62.2016 55.3155 60.6273 53.4592L51.8916 43.1583C51.4815 42.6746 51.2764 42.078 51.2764 41.4814L18.7228 41.4814Z" fill="#B79DFF"/>
<path d="M70 35C70 30.4037 69.0947 25.8525 67.3358 21.6061C65.5769 17.3597 62.9988 13.5013 59.7487 10.2513C56.4987 7.00121 52.6403 4.42313 48.3939 2.66422C44.1475 0.905301 39.5963 -2.00909e-07 35 0C30.4037 2.00909e-07 25.8525 0.905302 21.6061 2.66422C17.3597 4.42313 13.5013 7.00121 10.2513 10.2513C7.00121 13.5013 4.42313 17.3597 2.66422 21.6061C0.905301 25.8525 -4.01818e-07 30.4037 0 35H15.9385C15.9385 32.4968 16.4315 30.0181 17.3895 27.7055C18.3474 25.3928 19.7515 23.2915 21.5215 21.5215C23.2915 19.7515 25.3928 18.3474 27.7055 17.3895C30.0181 16.4315 32.4968 15.9385 35 15.9385C37.5032 15.9385 39.9819 16.4315 42.2945 17.3895C44.6072 18.3474 46.7085 19.7515 48.4785 21.5215C50.2485 23.2915 51.6526 25.3928 52.6105 27.7055C53.5685 30.0181 54.0615 32.4968 54.0615 35H70Z" fill="#6640D2"/>
<path d="M45.3705 35.6481C45.3705 34.3714 45.1191 33.1071 44.6305 31.9276C44.1419 30.748 43.4258 29.6763 42.523 28.7735C41.6202 27.8707 40.5484 27.1546 39.3688 26.666C38.1893 26.1774 36.925 25.9259 35.6483 25.9259C34.3716 25.9259 33.1073 26.1774 31.9278 26.666C30.7482 27.1546 29.6765 27.8707 28.7737 28.7735C27.8709 29.6763 27.1547 30.748 26.6661 31.9276C26.1776 33.1071 25.9261 34.3714 25.9261 35.6481L35.6483 35.6481H45.3705Z" fill="#6640D2"/>
</svg>
